<svg height="638" width="720" xmlns="http://www.w3.org/2000/svg">
<rect height="638" fill="#555" width="720"></rect>
<text fill="#7f7" font-family="Courier New" font-size="12" xml:space="preserve">
<tspan x="10" y="26">4 megabytes installed</tspan>
<tspan x="10" y="42"></tspan>
<tspan x="10" y="58">node_modules</tspan>
<tspan x="10" y="74">└─┬ partition-bundle@2.5.0 </tspan>
<tspan x="10" y="90">  ├─┬ browser-resolve@1.11.2 </tspan>
<tspan x="10" y="106">  │ └── resolve@1.1.7 </tspan>
<tspan x="10" y="122">  ├─┬ combine-source-map@0.7.2 </tspan>
<tspan x="10" y="138">  │ ├── convert-source-map@1.1.3 </tspan>
<tspan x="10" y="154">  │ ├── inline-source-map@0.6.2 </tspan>
<tspan x="10" y="170">  │ ├── lodash.memoize@3.0.4 </tspan>
<tspan x="10" y="186">  │ └── source-map@0.5.6 </tspan>
<tspan x="10" y="202">  ├─┬ deps-sort@1.3.9 </tspan>
<tspan x="10" y="218">  │ ├─┬ JSONStream@1.3.1 </tspan>
<tspan x="10" y="234">  │ │ ├── jsonparse@1.3.0 </tspan>
<tspan x="10" y="250">  │ │ └── through@2.3.8 </tspan>
<tspan x="10" y="266">  │ ├─┬ shasum@1.0.2 </tspan>
<tspan x="10" y="282">  │ │ ├─┬ json-stable-stringify@0.0.1 </tspan>
<tspan x="10" y="298">  │ │ │ └── jsonify@0.0.0 </tspan>
<tspan x="10" y="314">  │ │ └── sha.js@2.4.8 </tspan>
<tspan x="10" y="330">  │ ├─┬ subarg@1.0.0 </tspan>
<tspan x="10" y="346">  │ │ └── minimist@1.2.0 </tspan>
<tspan x="10" y="362">  │ └─┬ through2@1.1.1 </tspan>
<tspan x="10" y="378">  │   └─┬ readable-stream@1.1.14 </tspan>
<tspan x="10" y="394">  │     ├── isarray@0.0.1 </tspan>
<tspan x="10" y="410">  │     └── string_decoder@0.10.31 </tspan>
<tspan x="10" y="426">  ├─┬ mkdirp@0.5.1 </tspan>
<tspan x="10" y="442">  │ └── minimist@0.0.8 </tspan>
<tspan x="10" y="458">  ├── object-assign@3.0.0 </tspan>
<tspan x="10" y="474">  └─┬ through2@2.0.3 </tspan>
<tspan x="10" y="490">    ├─┬ readable-stream@2.2.9 </tspan>
<tspan x="10" y="506">    │ ├── buffer-shims@1.0.0 </tspan>
<tspan x="10" y="522">    │ ├── core-util-is@1.0.2 </tspan>
<tspan x="10" y="538">    │ ├── inherits@2.0.3 </tspan>
<tspan x="10" y="554">    │ ├── isarray@1.0.0 </tspan>
<tspan x="10" y="570">    │ ├── process-nextick-args@1.0.7 </tspan>
<tspan x="10" y="586">    │ ├── string_decoder@1.0.0 </tspan>
<tspan x="10" y="602">    │ └── util-deprecate@1.0.2 </tspan>
<tspan x="10" y="618">    └── xtend@4.0.1</tspan>
</text>
</svg>
